# xmcd
#
# Track frame offsets:
#	150
#	18673
#	41124
#	58055
#	74907
#	93102
#	112669
#	134309
#	149544
#	164256
#
# Disc length: 2424 seconds
#
# Revision: 0
# Processed by: cddbd v1.5.2PL0 Copyright (c) Steve Scherf et al.
# Submitted via: audiograbber 1.83.01
#
DISCID=9009760a
DTITLE=10 Mile Crossing - 10 Mile Crossing
DYEAR=2007
DGENRE=Country
TTITLE0=Last September
TTITLE1=Closer
TTITLE2=Go West
TTITLE3=I Do
TTITLE4=Knob Creek
TTITLE5=What I Wouldn't Give
TTITLE6=Confession
TTITLE7=Red Raider Plates
TTITLE8=Broken Side Of Me
TTITLE9=Shiner Bock
EXTD=
EXTT0=
EXTT1=
EXTT2=
EXTT3=
EXTT4=
EXTT5=
EXTT6=
EXTT7=
EXTT8=
EXTT9=
PLAYORDER=
